<svg width="31" height="26" viewBox="0 0 31 26" fill="none" xmlns="http://www.w3.org/2000/svg">
<path d="M30.0123 18.3122C30.0123 24.6142 26.5297 26 21.198 26H9.70247C3.29209 26 0.487549 22.9315 0.487549 16.1015V9.86548C0.487549 3.03553 3.26127 -3.8147e-06 9.70247 -3.8147e-06H21.3521C25.7592 -3.8147e-06 29.6116 1.68274 29.6116 6.99492V8.05076H24.4957V7.88578C24.4957 7.15989 24.434 6.17005 23.8485 5.70812C23.1088 5.11421 21.4446 5.1472 20.5816 5.1472H10.0107C7.51431 5.1472 5.97336 5.70812 5.97336 8.67766V17.2563C5.97336 20.2589 7.51431 20.8528 10.0107 20.8528H20.6741C21.537 20.8528 23.7252 20.8528 24.3416 20.0609C24.6806 19.599 24.7422 18.7081 24.7422 18.1802V17.9492H30.0123V18.3122Z" fill="white"/>
</svg>
