<svg width="30" height="26" viewBox="0 0 30 26" fill="none" xmlns="http://www.w3.org/2000/svg">
<path fill-rule="evenodd" clip-rule="evenodd" d="M29.6358 18.3122C29.6358 24.6142 26.1533 26 20.8216 26H9.32601C2.88481 26 0.111084 22.9315 0.111084 16.1015V9.86548C0.111084 3.03553 2.88481 -3.8147e-06 9.32601 -3.8147e-06H20.9756C25.3828 -3.8147e-06 29.2352 1.68274 29.2352 6.99492V8.05076H24.1192V7.88578C24.1192 7.15989 24.0576 6.17005 23.472 5.70812C22.7323 5.11421 21.0681 5.1472 20.2052 5.1472H9.6342C7.13785 5.1472 5.59689 5.70812 5.59689 8.67766V17.2563C5.59689 20.2589 7.13785 20.8528 9.6342 20.8528H20.2976C21.1297 20.8528 23.3487 20.8528 23.9651 20.0609C24.3041 19.599 24.3349 18.7081 24.3349 18.1802V17.9492H29.6358V18.3122Z" fill="#FF0000"/>
</svg>
