<svg width="94" height="78" viewBox="0 0 94 78" fill="none" xmlns="http://www.w3.org/2000/svg">
<path d="M93.7227 54.9365C93.7227 73.8426 82.7252 78 65.8882 78H29.5865C9.34314 78 0.486694 68.7944 0.486694 48.3046V29.5964C0.486694 9.1066 9.24582 0 29.5865 0H66.3748C80.2921 0 92.4575 5.04822 92.4575 20.9848V24.1523H76.3018V23.6574C76.3018 21.4797 76.1072 18.5102 74.258 17.1244C71.9222 15.3426 66.6668 15.4416 63.9417 15.4416H30.5597C22.6765 15.4416 17.8103 17.1244 17.8103 26.033V51.769C17.8103 60.7766 22.6765 62.5584 30.5597 62.5584H64.2337C66.9587 62.5584 73.8687 62.5584 75.8152 60.1827C76.8857 58.797 77.0804 56.1244 77.0804 54.5406V53.8477H93.7227V54.9365Z" fill="white"/>
</svg>
