<svg width="94" height="78" viewBox="0 0 94 78" fill="none" xmlns="http://www.w3.org/2000/svg">
<path fill-rule="evenodd" clip-rule="evenodd" d="M93.9025 54.9365C93.9025 73.8426 82.9049 78 66.0679 78H29.7662C9.42557 78 0.666443 68.7944 0.666443 48.3046V29.5964C0.666443 9.1066 9.42557 0 29.7662 0H66.5545C80.4718 0 92.6373 5.04822 92.6373 20.9848V24.1523H76.4815V23.6574C76.4815 21.4797 76.2869 18.5102 74.4378 17.1244C72.102 15.3426 66.8465 15.4416 64.1214 15.4416H30.7394C22.8562 15.4416 17.99 17.1244 17.99 26.033V51.769C17.99 60.7766 22.8562 62.5584 30.7394 62.5584H64.4134C67.0412 62.5584 74.0485 62.5584 75.9949 60.1827C77.0655 58.797 77.1628 56.1244 77.1628 54.5406V53.8477H93.9025V54.9365Z" fill="#FF0000"/>
</svg>
